STARTFONT 2.1
FONT "unknown"
SIZE 16 75 75
FONTBOUNDINGBOX 16 16 0 0
STARTPROPERTIES 3
COPYRIGHT "unknown"
FONT_ASCENT 0
FONT_DESCENT 0
ENDPROPERTIES
STARTCHAR tst\IMG00000.png
ENCODING 65
DWIDTH 78 0
BBX 78 40 0 0
BITMAP
00000000000000000000
00000000000000000000
00000000000000000000
00000000000000000000
00000000000000000000
00000000000000000000
00000000000000000000
00000000000000000000
00000000000000000000
00000000000000000000
00000000000000000000
00000000000000000000
00000000000000000000
00000000000000000000
00000000000000000000
000001f00000f8000000
000007fe0003ff000000
00001fff000fff800000
00003fff801fffc00000
00007fffc01fffe00000
00007fffc03ffff00000
0000ffffe03ffff00000
0000ffffe07ffff00000
0000ffffe07ffff00000
0000ffffe07ffff80000
0000ffffe07ffff80000
0000ffffe07ffff00000
0000f801e03c00f00000
00000000000000000000
00000000000000000000
00000000000000000000
00000000000000000000
00000000000000000000
00000000000000000000
00000000000000000000
00000000000000000000
00000000000000000000
00000000000000000000
00000000000000000000
00000000000000000000
ENDCHAR
STARTCHAR tst\IMG00001.png
ENCODING 66
DWIDTH 78 0
BBX 78 40 0 0
BITMAP
00000000000000000000
00000000000000000000
00000000000000000000
00000000000000000000
00000000000000000000
00000000000000000000
00000000000000000000
00000000000000000000
00000000000000000000
00000000000000000000
00000000000000000000
00000000000000000000
000001f00000fc000000
000007fc0003fe000000
00001fff0007ff800000
00001fff800fffc00000
00003fffc01fffe00000
00007fffc03fffe00000
00007fffc03ffff00000
0000ffffe03ffff00000
0000ffffe07ffff00000
0000ffffe07ffff00000
0000ffffe07ffff00000
0000ffffe07ffff00000
0000fe0fe03f07f00000
00000000000000000000
00000000000000000000
00000000000000000000
00000000000000000000
00000000000000000000
00000000000000000000
00000000000000000000
00000000000000000000
00000000000000000000
00000000000000000000
00000000000000000000
00000000000000000000
00000000000000000000
00000000000000000000
00000000000000000000
ENDCHAR
STARTCHAR tst\IMG00002.png
ENCODING 67
DWIDTH 78 0
BBX 78 40 0 0
BITMAP
00000000000000000000
00000000000000000000
00000000000000000000
00000000000000000000
00000000000000000000
00000000000000000000
00000000000000000000
00000000000000000000
00000000000000000000
00000000000000000000
000003f80000fc000000
000007fe0003ff000000
00001fff0007ff800000
00001fff000fffc00000
00003fff801fffc00000
00007fffc01fffe00000
00007fffc03fffe00000
00007fffc03ffff00000
00007fffe03ffff00000
0000ffffe03ffff00000
0000ffffe03ffff00000
0000ffffe03ffff00000
00007f1fc03f8ff00000
00007001c01800600000
00000000000000000000
00000000000000000000
00000000000000000000
00000000000000000000
00000000000000000000
00000000000000000000
00000000000000000000
00000000000000000000
00000000000000000000
00000000000000000000
00000000000000000000
00000000000000000000
00000000000000000000
00000000000000000000
00000000000000000000
00000000000000000000
ENDCHAR
STARTCHAR tst\IMG00003.png
ENCODING 68
DWIDTH 78 0
BBX 78 40 0 0
BITMAP
fffffffffffffffffffc
fffffffffffffffffffc
fffffffffffffffffffc
fffffffffffffffffffc
fffffffffffffffffffc
fffffffffffffffffffc
fffffffffffffffffffc
fffffffffffffffffffc
fffffffffffffffffffc
fffffffffffffffffffc
fffffffffffffffffffc
fffffffffffffffffffc
fffffffffffffffffffc
fffffffffffffffffffc
fffffffffffffffffffc
fffffffffffffffffffc
fffffffffffffffffffc
fffffffffffffffffffc
fffffffffffffffffffc
fffffffffffffffffffc
fffffffffffffffffffc
fffffffffffffffffffc
fffffffffffffffffffc
fffffffffffffffffffc
fffffffffffffffffffc
fffffffffffffffffffc
fffffffffffffffffffc
fffffffffffffffffffc
fffffffffffffffffffc
fffffffffffffffffffc
fffffffffffffffffffc
fffffffffffffffffffc
fffffffffffffffffffc
fffffffffffffffffffc
fffffffffffffffffffc
fffffffffffffffffffc
fffffffffffffffffffc
fffffffffffffffffffc
fffffffffffffffffffc
fffffffffffffffffffc
ENDCHAR
STARTCHAR tst\IMG00004.png
ENCODING 69
DWIDTH 78 0
BBX 78 40 0 0
BITMAP
fffffffffffffffffffc
fffffffffffffffffffc
fffffffffffffffffffc
fffffffffffffffffffc
fffffffffffffffffffc
fffffffffffffffffffc
fffffffffffffffffffc
fffffffffffffffffffc
fffffffffffffffffffc
fffffffffffffffffffc
fffffffffffffffffffc
fffffffffffffffffffc
fffffffffffffffffffc
fffffffffffffffffffc
fffffffffffffffffffc
fffffffffffffffffffc
fffffffffffffffffffc
fffffffffffffffffffc
fffffffffffffffffffc
fffffffffffffffffffc
fffffffffffffffffffc
fffffffffffffffffffc
fffffffffffffffffffc
fffffffffffffffffffc
fffffffffffffffffffc
fffffffffffffffffffc
fffffffffffffffffffc
fffffffffffffffffffc
fffffffffffffffffffc
fffffffffffffffffffc
fffffffffffffffffffc
fffffffffffffffffffc
fffffffffffffffffffc
fffffffffffffffffffc
fffffffffffffffffffc
fffffffffffffffffffc
fffffffffffffffffffc
fffffffffffffffffffc
fffffffffffffffffffc
fffffffffffffffffffc
ENDCHAR
STARTCHAR tst\IMG00005.png
ENCODING 70
DWIDTH 78 0
BBX 78 40 0 0
BITMAP
fffffffffffffffffffc
fffffffffffffffffffc
fffffffffffffffffffc
fffffffffffffffffffc
fffffffffffffffffffc
fffffffffffffffffffc
fffffffffffffffffffc
fffffffffffffffffffc
fffffffffffffffffffc
fffffffffffffffffffc
fffffffffffffffffffc
fffffffffffffffffffc
fffffffffffffffffffc
fffffffffffffffffffc
fffffffffffffffffffc
fffffffffffffffffffc
fffffffffffffffffffc
fffffffffffffffffffc
fffffffffffffffffffc
fffffffffffffffffffc
fffffffffffffffffffc
fffffffffffffffffffc
fffffffffffffffffffc
fffffffffffffffffffc
fffffffffffffffffffc
fffffffffffffffffffc
fffffffffffffffffffc
fffffffffffffffffffc
fffffffffffffffffffc
fffffffffffffffffffc
fffffffffffffffffffc
fffffffffffffffffffc
fffffffffffffffffffc
fffffffffffffffffffc
fffffffffffffffffffc
fffffffffffffffffffc
fffffffffffffffffffc
fffffffffffffffffffc
fffffffffffffffffffc
fffffffffffffffffffc
ENDCHAR
STARTCHAR tst\IMG00006.png
ENCODING 71
DWIDTH 78 0
BBX 78 40 0 0
BITMAP
00000000000000000000
00000000000000000000
00000000000000000000
00000000000000000000
00000000000000000000
00000000000000000000
00000000000000000000
00000000000000000000
00000040000020000000
000003fc0001fe000000
00000ffe0007ff000000
00001fff000fff800000
00001fff800fffc00000
00003fff801fffc00000
00007effc01f7fe00000
00007fffc03fffe00000
00007fffc037fff00000
00007fffe02ffff00000
00007fffe03ffff00000
0000ffffe03ffff00000
0000ffffe07ffff00000
0000ffffe07ffff00000
0000ffffe07ffff00000
0000ffffe07ffff80000
0000fffff07ffff80000
0000ffffe07ffff80000
0000fe0fe07f03f00000
00006000c03000600000
00000000000000000000
00000000000000000000
00000000000000000000
00000000000000000000
00000000000000000000
00000000000000000000
00000000000000000000
00000000000000000000
00000000000000000000
00000000000000000000
00000000000000000000
00000000000000000000
ENDCHAR
STARTCHAR tst\IMG00007.png
ENCODING 72
DWIDTH 78 0
BBX 78 40 0 0
BITMAP
fffffffffffffffffffc
fffffffffffffffffffc
fffffffffffffffffffc
fffffffffffffffffffc
fffffffffffffffffffc
fffffffffffffffffffc
fffffffffffffffffffc
fffffffffffffffffffc
fffffffffffffffffffc
fffffffffffffffffffc
fffffffffffffffffffc
fffffffffffffffffffc
fffffffffffffffffffc
ffffff1fffffdffffffc
fffffdf7fffffbfffffc
fffff405ffff02fffffc
fffff001fff800fffffc
ffffe000fff0007ffffc
ffffc0007fe0001ffffc
ffff80003fc0001ffffc
ffff80003fc0000ffffc
ffff00001f80000ffffc
ffff00001f80000ffffc
ffff00000f800007fffc
ffff00000f800007fffc
ffff00000f800007fffc
ffff00001f800007fffc
ffff07fc1f83fe0ffffc
fffffffffffffffffffc
fffffffffffffffffffc
fffffffffffffffffffc
fffffffffffffffffffc
fffffffffffffffffffc
fffffffffffffffffffc
fffffffffffffffffffc
fffffffffffffffffffc
fffffffffffffffffffc
fffffffffffffffffffc
fffffffffffffffffffc
fffffffffffffffffffc
ENDCHAR
STARTCHAR tst\thick-l0.png
ENCODING 73
DWIDTH 158 0
BBX 158 128 0 0
BITMAP
0000000000000000000000000000000000000000
0000000000000000000000000000000000000000
000000000001fffffffffffffff8000000000000
00000000007ffffffffffffffff8000000000000
0000000007fffffffffffffffff8000000000000
000000003ffffffffffffffffff8000000000000
00000000fffffffffffffffffff8000000000000
00000003fffffffffffffffffff8000000000000
0000000fffffc0000000ff000000000000000000
0000003fffc00000000000000000000000000000
0000007ffc000000000000000000000000000000
000001ffe0000000000000000000000000000000
000003ff80000000000000000000000000000000
000007fe00000000000000000000000000000000
00001ff800000000000000000000000000000000
00003ff000000000000003fc0000000000000000
00007fc000000000000001fc0000000000000000
0000ff8000000000000000780000000000000000
0001ff0000000000000000380000000000000000
0001fe0000000000000000000000000000000000
0003f80000000000000000000000000000000000
0007f00000000000000000000000000000000000
000fe00000000000000000000000000000000000
000fc00000000000000000000000000000000000
001fc00000000000000000000000000000000000
003f800000000000000000000000000000000000
007f000000000000000000000000000000000000
007e000000000000000000000000000000000000
00fe000000000000000000000000000000000000
00fc000000000000000000000000000000000000
01fc000000000000000000000000000000000000
01f8000000000000000000000000000000000000
03f0000000000000000000000000000000000000
03f0000000000000000000000000000000000000
07e0000000000000000000000000000000000000
07e0000000000000000000000000000000000000
07e0000000000000000000000000000000000000
0fc0000000000000000000000000000000000000
0fc0000000000000000000000000000000000000
0f80000000000000000000000000000000000000
1f80000000000000000000000000000000000000
1f80000000000000000000000000000000000000
1f00000000000000000000000000000000000000
1f00000000000000000000000000000000000000
3f00000000000000000000000000000000000000
3f00000000000000000000000000000000000000
3f00000000000000000000000000000000000000
3f00000000000000000000000000000000000000
3f00000000000000000000000000000000000000
3f00000000000000000000000000000000000000
3f00000000000000000000000000000000000000
3f00000000000000000000000000000000000000
3f00000000000000000000000000000000000000
3f00000000000000000000000000000000000000
3f00000000000000000000000000000000000000
3f00000000000000000000000000000000000000
3f00000000000000000000000000000000000000
3f00000000000000000000000000000000000000
3f00000000000000000000000000000000000000
3f00000000000000000000000000000000000000
3f00000000000000000000000000000000000000
3f00000000000000000000000000000000000000
3f00000000000000000000000000000000000000
3f00000000000000000000000000000000000000
3f00000000000000000000000000000000000000
3f00000000000000000000000000000000000000
3f00000000000000000000000000000000000000
3f00000000000000000000000000000000000000
3f00000000000000000000000000000000000000
3f00000000000000000000000000000000000000
3f00000000000000000000000000000000000000
3f00000000000000000000000000000000000000
3f00000000000000000000000000000000000000
3f00000000000000000000000000000000000000
3f00000000000000000000000000000000000000
3f00000000000000000000000000000000000000
3f00000000000000000000000000000000000000
3f00000000000000000000000000000000000000
3f00000000000000000000000000000000000000
3f00000000000000000000000000000000000000
3f00000000000000000000000000000000000000
3f00000000000000000000000000000000000000
3f00000000000000000000000000000000000000
1f00000000000000000000000000000000000000
1f00000000000000000000000000000000000000
1f00000000000000000000000000000000000000
1f80000000000000000000000000000000000000
1f80000000000000000000000000000000000000
1f80000000000000000000000000000000000000
1f80000000000000000000000000000000000000
0f80000000000000000000000000000000000000
0f80000000000000000000000000000000000000
0fc0000000000000000000000000000000000000
0fc0000000000000000000000000000000000000
0fc0000000000000000000000000000000000000
07c0000000000000000000000000000000000000
07e0000000000000000000000000000000000000
07e0000000000000000000000000000000000000
03f0000000000000000000000000000000000000
03f0000000000000000000000000000000000000
03f0000000000000000000000000000000000000
01f8000000000000000000000000000000000000
01f8000000000000000000000000000000000000
00fc000000000000000000000000000000000000
00fe000000000000000000000000000000000000
007e000000000000000000000000000000000000
007f000000000000000000000000000000000000
003f800000000000000000000000000000000000
001fc00000000000000000000000000000000000
001fe0000000000000000000000001c000000000
000ff0000000000000000000000003e000000000
0007f0000000000000000000000007f000000000
0003f800000000000000000000001ff000000000
0001fe00000000000000000000003fe000000000
0000ff00000000000000000000007fc000000000
00007f8000000000000000000001ff0000000000
00003fe000000000000000000007fe0000000000
00001ffc0000000000000000003ffc0000000000
000007ff000000000000000000fff00000000000
000003fff8000000000000000fffe00000000000
000000fffffff000000007ffffffe00000000000
0000007fffffffffffffffffffffe00000000000
0000001fffffffffffffffffffffe00000000000
00000003ffffffffffffffffffffe00000000000
000000007fffffffffffffffffffe00000000000
0000000003fffffffffffffffff8000000000000
0000000000000000000000000000000000000000
0000000000000000000000000000000000000000
ENDCHAR
